<svg width="39" height="39" fill="none" xmlns="http://www.w3.org/2000/svg"><path d="M29.292 12.646v3.917m-4.569-1.632v5.395c0 .643-.306 1.242-.834 1.608-.886.611-2.423 1.418-4.377 1.418-1.955 0-3.502-.809-4.393-1.418a1.94 1.94 0 01-.84-1.612v-5.39" stroke="#323232" stroke-width="2.5" stroke-linecap="round" stroke-linejoin="round"/><path d="M32.09 29.292H6.91a5.035 5.035 0 01-5.035-5.035V6.91A5.035 5.035 0 016.91 1.875h25.178a5.035 5.035 0 015.037 5.035v17.345a5.035 5.035 0 01-5.035 5.037v0zm-8.673-.001l.979 7.834m-8.813-7.834l-.979 7.834m-2.664 0h15.12" stroke="#323232" stroke-width="2.5" stroke-linecap="round" stroke-linejoin="round"/><path d="M9.708 12.646l9.792 4.896 9.792-4.896L19.5 7.75l-9.792 4.896z" stroke="#323232" stroke-width="2.5" stroke-linecap="round" stroke-linejoin="round"/></svg>