<svg width="42" height="28" fill="none" xmlns="http://www.w3.org/2000/svg"><path d="M36.387 9.666a3.54 3.54 0 11-5.007 5.006 3.54 3.54 0 015.007-5.006zM24.855 3.347a5.451 5.451 0 11-7.71 7.709 5.451 5.451 0 017.71-7.71M10.62 9.666a3.54 3.54 0 11-5.007 5.006 3.54 3.54 0 015.007-5.006zM40.25 26.25v-1.918a4.374 4.374 0 00-4.375-4.375h-1.402M1.75 26.25v-1.918a4.374 4.374 0 014.375-4.375h1.402m22.816 6.293v-2.802a6.125 6.125 0 00-6.125-6.125H17.78a6.125 6.125 0 00-6.125 6.125v2.802" stroke="#323232" stroke-width="2.5" stroke-linecap="round" stroke-linejoin="round"/></svg>