<svg width="39" height="39" fill="none" xmlns="http://www.w3.org/2000/svg"><path d="M33.696 8.998v3.25h-3.25 3.25" stroke="#323232" stroke-width="2" stroke-linecap="round" stroke-linejoin="round"/><path d="M32.987 12.25A15.379 15.379 0 0019.5 4.333c-8.377 0-15.166 6.79-15.166 15.166 0 8.375 6.79 15.166 15.166 15.166 8.377 0 15.166-6.79 15.166-15.166" stroke="#323232" stroke-width="2" stroke-linecap="round" stroke-linejoin="round"/><path d="M14.354 25.168c-1.596 0-2.87-.565-3.822-1.694l1.484-1.414c.7.784 1.489 1.176 2.366 1.176.41 0 .742-.107.994-.322.261-.224.392-.523.392-.896 0-.401-.168-.71-.504-.924-.336-.215-.807-.322-1.414-.322h-.896l-.336-1.372 2.338-2.352h-3.85V15.2h6.622v1.624L15.25 19.19c1.755.299 2.632 1.223 2.632 2.772 0 .943-.322 1.713-.966 2.31-.635.597-1.489.896-2.562.896zm12.587-1.442c-.812.961-1.862 1.442-3.15 1.442-1.288 0-2.333-.48-3.136-1.442-.802-.961-1.204-2.17-1.204-3.626 0-1.447.406-2.65 1.218-3.612.812-.97 1.862-1.456 3.15-1.456 1.279 0 2.32.48 3.122 1.442.812.961 1.218 2.17 1.218 3.626 0 1.447-.406 2.655-1.218 3.626zm-4.69-1.386c.402.588.924.882 1.568.882s1.158-.29 1.54-.868c.392-.588.588-1.34.588-2.254 0-.896-.2-1.638-.602-2.226-.401-.597-.919-.896-1.554-.896-.634 0-1.148.294-1.54.882-.392.579-.588 1.325-.588 2.24 0 .905.196 1.652.588 2.24z" fill="#2D2D2D"/></svg>