<svg width="31" height="27" fill="none" xmlns="http://www.w3.org/2000/svg"><path d="M25.125 3.875H26.5a2.75 2.75 0 012.75 2.75v16.5a2.75 2.75 0 01-2.75 2.75h-22a2.75 2.75 0 01-2.75-2.75v-16.5a2.75 2.75 0 012.75-2.75h1.375" stroke="#323232" stroke-width="2" stroke-linecap="round" stroke-linejoin="round"/><path d="M15.5 5.25a4.125 4.125 0 00-4.125-4.125H7.25c-.759 0-1.375.616-1.375 1.375v17.875c0 .759.616 1.375 1.375 1.375h4.125a4.125 4.125 0 014.125 4.125 4.125 4.125 0 014.125-4.125h4.125c.759 0 1.375-.616 1.375-1.375V2.5c0-.759-.616-1.375-1.375-1.375h-4.125A4.125 4.125 0 0015.5 5.25zm0 0v20.625" stroke="#323232" stroke-width="2" stroke-linecap="round" stroke-linejoin="round"/></svg>