<svg width="31" height="31" fill="none" xmlns="http://www.w3.org/2000/svg"><path d="M11.625 8.615h7.75M9.042 13.782h12.916m-3.946 5.826a3.552 3.552 0 11-5.024 5.023 3.552 3.552 0 015.024-5.023" stroke="#323232" stroke-width="2" stroke-linecap="round" stroke-linejoin="round"/><path d="M19.052 22.12l3.552 3.552-3.39 3.39-3.404-3.403m-.62 0l-3.403 3.404-3.391-3.391 3.552-3.552" stroke="#323232" stroke-width="2" stroke-linecap="round" stroke-linejoin="round"/><path d="M8.396 25.672H6.458a2.583 2.583 0 01-2.583-2.584V5.813A2.583 2.583 0 016.458 3.23h18.084a2.583 2.583 0 012.583 2.583v17.276a2.583 2.583 0 01-2.583 2.584h-1.938" stroke="#323232" stroke-width="2" stroke-linecap="round" stroke-linejoin="round"/></svg>