<svg width="177" height="96" fill="none" xmlns="http://www.w3.org/2000/svg"><path d="M82.597 38.409h6.24c3.507 0 5.289 1.433 5.289 4.228 0 1.924-.792 3.048-2.582 3.563 2.059.435 3.168 1.639 3.168 3.816 0 3.167-1.853 4.64-5.543 4.64h-6.572V38.409zm3.508 2.51v4.172h2.154c1.757 0 2.43-.641 2.43-2.098 0-1.457-.752-2.074-2.454-2.074h-2.13zm0 6.532v4.663h2.478c1.782 0 2.558-.847 2.558-2.304 0-1.583-.792-2.375-2.756-2.375h-2.28v.016zm21.877-4.687V54.64h-3.215v-1.82a3.823 3.823 0 01-3.682 2.13c-2.708 0-3.959-1.995-3.959-4.481v-7.704h3.207v7.197c0 1.583.673 2.375 2.027 2.375s2.375-.87 2.375-2.636v-6.968h3.207l.04.032zm2.327 8.178h2.985c.151 1.054.626 1.663 2.059 1.663 1.251 0 1.829-.459 1.829-1.282 0-.824-.673-1.18-2.375-1.41a6.823 6.823 0 01-3.31-1.18 2.968 2.968 0 01-1.006-2.533c0-2.59 2.534-3.714 4.609-3.714 2.557 0 4.489 1.022 4.813 3.69h-2.953a1.575 1.575 0 00-.601-1.116 1.589 1.589 0 00-1.228-.317c-1.053 0-1.655.515-1.655 1.227 0 .713.555 1.053 2.257 1.307 2.478.356 4.513 1.053 4.513 3.713s-1.805 3.959-4.885 3.959-4.965-1.41-5.06-3.959l.008-.047zm12.083-11.583a1.823 1.823 0 011.107-1.712 1.827 1.827 0 012.414 2.373 1.829 1.829 0 01-1.692 1.136 1.768 1.768 0 01-1.829-1.797zm3.436 3.405V54.64h-3.167V42.764h3.167zm6.469 0v1.892a4.025 4.025 0 013.784-2.178 3.796 3.796 0 012.811 1.101 4.999 4.999 0 011.101 3.508v7.561h-3.239v-7.126c0-1.639-.625-2.375-2.058-2.375-1.433 0-2.376.87-2.376 2.613v6.864h-3.23V42.748h3.23l-.023.016zm21.631 8.147c-.372 2.565-2.375 3.959-5.543 3.959a5.753 5.753 0 01-6.064-6.05c0-3.958 2.509-6.381 5.985-6.381 3.682 0 5.661 2.613 5.661 6.073v.895h-8.392c.103 1.995 1.124 3.103 2.905 3.103 1.505 0 2.233-.641 2.431-1.639h3.033l-.016.04zm-5.614-6.144c-1.457 0-2.431.974-2.684 2.668h5.21c-.127-1.821-1.006-2.668-2.534-2.668h.008zm7.221 6.175h2.985c.151 1.054.626 1.663 2.059 1.663 1.251 0 1.829-.459 1.829-1.282 0-.824-.673-1.18-2.376-1.41a6.823 6.823 0 01-3.309-1.18 2.968 2.968 0 01-1.006-2.533c0-2.59 2.534-3.714 4.608-3.714 2.558 0 4.49 1.022 4.814 3.69h-2.953a1.592 1.592 0 00-.601-1.116 1.589 1.589 0 00-1.228-.317c-1.053 0-1.655.515-1.655 1.227 0 .713.554 1.053 2.257 1.307 2.478.356 4.513 1.053 4.513 3.713s-1.805 3.959-4.885 3.959-4.965-1.41-5.06-3.959l.008-.047zm11.528 0h2.985c.151 1.054.626 1.663 2.059 1.663 1.251 0 1.829-.459 1.829-1.282 0-.824-.673-1.18-2.375-1.41a6.823 6.823 0 01-3.31-1.18 2.968 2.968 0 01-1.006-2.533c0-2.59 2.534-3.714 4.608-3.714 2.558 0 4.49 1.022 4.814 3.69h-2.953a1.592 1.592 0 00-.601-1.116 1.589 1.589 0 00-1.228-.317c-1.053 0-1.655.515-1.655 1.227 0 .713.555 1.053 2.257 1.307 2.478.356 4.513 1.053 4.513 3.713s-1.805 3.959-4.885 3.959-4.965-1.41-5.06-3.959l.008-.047zM96.754 20.357c-.372 4.077-3.286 6.072-7.126 6.072-5.138 0-7.997-3.167-7.997-8.274 0-4.893 3.286-8.48 7.918-8.48 3.832 0 6.643 2.027 7.039 5.923H92.89c-.277-1.972-1.306-3-3.333-3-2.51 0-4.11 1.97-4.11 5.352 0 3.586 1.481 5.542 4.134 5.542a3.332 3.332 0 003.634-3.104h3.531l.008-.031zm2.154-9.502a1.783 1.783 0 011.829-1.797 1.806 1.806 0 11-1.83 1.797zm3.46 3.437v11.876h-3.207V14.292h3.231-.024zm3.705 8.353v-6.018h-1.48V14.3h1.48v-2.59h3.207v2.59h2.431v2.327h-2.431v5.717a1.183 1.183 0 00.285 1.023 1.188 1.188 0 00.99.386c.419.017.836-.053 1.227-.206v2.534a5.889 5.889 0 01-1.956.309c-2.454 0-3.761-1.26-3.761-3.737l.008-.008zm7.039-8.353h3.484l2.811 7.126 2.605-7.126h3.103l-6.334 15.914h-3.104l2.059-5.226-4.64-10.68.016-.008zM82.114 76.231h3.436c.325 1.948 1.33 2.669 3.168 2.669 1.583 0 2.605-.895 2.605-2.154 0-1.694-1.703-1.924-2.985-2.13-3.207-.435-5.74-1.41-5.74-4.948 0-3.255 3.055-4.814 5.763-4.814 3.587 0 5.693 1.583 5.962 4.845H90.99c-.198-1.433-1.1-2.153-2.66-2.153s-2.376.744-2.376 1.844c0 1.695 1.758 1.893 2.93 2.075 3.207.46 5.835 1.362 5.835 4.917 0 3.404-3.056 5.178-6.065 5.178-3.61 0-6.334-1.584-6.563-5.329h.023zm23.128.563h2.906c-.301 3.23-2.685 4.75-5.543 4.75a5.728 5.728 0 01-5.626-3.695 5.725 5.725 0 01-.36-2.354c0-3.959 2.605-6.334 6.018-6.334 3.009 0 5.162 1.512 5.463 4.608h-3.032a2.144 2.144 0 00-1.51-1.947 2.14 2.14 0 00-.866-.08c-1.702 0-2.779 1.283-2.779 3.563 0 2.692 1.029 3.793 2.835 3.793a2.376 2.376 0 002.51-2.304h-.016zm5.186-12.732h3.23v7.252a4.018 4.018 0 013.785-2.153c2.755 0 3.911 2.098 3.911 4.584v7.578h-3.23v-7.126c0-1.64-.626-2.376-2.027-2.376-1.402 0-2.431.847-2.431 2.613v6.889h-3.23V64.062h-.008zm33.31 17.498a5.796 5.796 0 01-6.113-6.05c0-3.87 2.605-6.333 6.136-6.333a5.829 5.829 0 016.113 6.096c0 3.96-2.581 6.335-6.136 6.335v-.048zm0-2.486c1.805 0 2.858-1.33 2.858-3.61 0-2.431-1.053-3.793-2.858-3.793-1.806 0-2.835 1.306-2.835 3.586 0 2.463.974 3.817 2.835 3.817zm11.829-15.044v17.293h-3.207V64.062h3.207v-.032zm-25.836 17.498a5.792 5.792 0 01-5.72-3.676 5.791 5.791 0 01-.392-2.373c0-3.871 2.605-6.334 6.136-6.334a5.829 5.829 0 016.112 6.097c0 3.959-2.581 6.334-6.136 6.334v-.048zm0-2.486c1.805 0 2.858-1.33 2.858-3.61 0-2.431-1.053-3.793-2.858-3.793-1.805 0-2.834 1.307-2.834 3.587 0 2.462.974 3.816 2.834 3.816zM67.166 43.547V0H0v43.547c0 31.909 33.579 51.9 33.579 51.9s33.579-19.991 33.579-51.9h.008zm-33.58 47.974C28.576 88.25 3.42 70.656 3.42 43.547V3.428h60.333v40.127c0 27.11-25.146 44.703-30.166 47.973v-.008z" fill="#fff"/><path d="M36.453 76.572h2.906c-.301 3.23-2.684 4.75-5.543 4.75a5.724 5.724 0 01-5.985-6.049c0-3.959 2.605-6.334 6.017-6.334 3.009 0 5.162 1.513 5.463 4.608H36.28a2.138 2.138 0 00-2.376-2.027c-1.702 0-2.779 1.283-2.779 3.563 0 2.692 1.03 3.793 2.835 3.793a2.375 2.375 0 002.51-2.304h-.016zm14.972-40.38c-3.412 0-6.255 2.256-7.846 3.959h-5.89l6.69-6.69c2.328.07 5.89-.365 8.29-2.764 3.855-3.777 2.612-10.538 2.612-10.538s-6.69-1.236-10.538 2.612c-2.375 2.328-2.763 5.962-2.763 8.29l-6.69 6.714V26.691c1.583-1.584 3.958-4.434 3.958-7.847 0-5.376-5.67-9.232-5.67-9.232s-5.613 3.864-5.613 9.161c0 3.413 2.257 6.255 3.96 7.846v11.085l-6.691-6.69c0-2.328-.365-5.962-2.764-8.29-3.855-3.856-10.538-2.613-10.538-2.613s-1.235 6.762 2.542 10.538c2.375 2.376 6.033 2.835 8.36 2.764l6.636 6.738h-5.891c-1.67-1.67-4.505-3.96-7.847-3.96-5.455 0-9.303 5.67-9.303 5.67s3.959 5.598 9.303 5.598c3.413 0 6.256-2.257 7.847-3.96h7.704l-1.67 11.56a5.543 5.543 0 01-3.492 4.577h-2.114v3.476H43.12v-3.413h-2.178a5.543 5.543 0 01-3.491-4.576l-1.67-11.56h7.774c1.584 1.67 4.363 3.96 7.847 3.96 5.233 0 9.303-5.599 9.303-5.599s-3.975-5.732-9.28-5.732zm-4.291-11.085c1.306-1.378 3.492-1.742 4.94-1.821-.07 1.457-.435 3.634-1.82 4.94-1.386 1.307-3.492 1.743-4.941 1.822.071-1.386.443-3.563 1.821-4.87v-.07zm-30.309 3.167c-1.306-1.306-1.67-3.492-1.742-4.94 1.457.07 3.563.435 4.94 1.82 1.378 1.386 1.672 3.492 1.743 4.941-1.45-.047-3.563-.412-4.94-1.82zM15.733 44.11c-1.893 0-3.706-1.236-4.751-2.178a7.284 7.284 0 014.75-2.256c1.893 0 3.635 1.235 4.751 2.177-1.116.99-2.858 2.257-4.75 2.257zM31.29 18.773c0-1.892 1.306-3.634 2.256-4.75 1.022 1.092 2.257 2.834 2.257 4.75s-1.235 3.705-2.257 4.798c-.95-1.085-2.256-2.898-2.256-4.798zM33.508 59.7H31.33c1.528-2.257 1.528-4.142 1.964-7.997h.507c.435 3.855.364 5.74 1.963 7.996h-2.256zm17.917-15.59a7.285 7.285 0 01-4.75-2.257c1.021-.942 2.834-2.177 4.75-2.177 1.917 0 3.635 1.235 4.751 2.256-1.116.91-2.874 2.178-4.75 2.178z" fill="#fff"/></svg>